<?xml version="1.0" encoding="UTF-8" standalone="no"?><!-- Generator: Gravit.io --><svg xmlns="http://www.w3.org/2000/svg" xmlns:xlink="http://www.w3.org/1999/xlink" style="isolation:isolate" viewBox="186 318 580 580" width="580pt" height="580pt"><defs><clipPath id="_clipPath_GpCm6anyY2C81sr8tScizBbAQYeRHFOy"><rect x="186" y="318" width="580" height="580"/></clipPath></defs><g clip-path="url(#_clipPath_GpCm6anyY2C81sr8tScizBbAQYeRHFOy)"><g><g><g><g><circle vector-effect="non-scaling-stroke" cx="468.97926294827744" cy="636.08347423948" r="225.10822706608212" fill="rgb(48,92,238)"/><path d=" M 236 636.083 C 235.969 604.946 242.202 574.124 254.323 545.442 C 266.036 517.768 283.005 492.612 304.257 471.361 C 325.508 450.109 350.664 433.14 378.338 421.428 C 407.019 409.307 437.842 403.073 468.979 403.104 C 500.117 403.073 530.939 409.307 559.621 421.428 C 587.295 433.14 612.45 450.109 633.702 471.361 C 654.953 492.612 671.923 517.768 683.635 545.442 C 695.756 574.124 701.99 604.946 701.958 636.083 C 701.99 667.221 695.756 698.043 683.635 726.725 C 671.923 754.399 654.953 779.555 633.702 800.806 C 612.45 822.058 587.295 839.027 559.621 850.739 C 530.939 862.86 500.117 869.094 468.979 869.063 C 437.842 869.094 407.019 862.86 378.338 850.739 C 350.664 839.027 325.508 822.058 304.257 800.806 C 283.005 779.555 266.036 754.399 254.323 726.725 C 242.202 698.043 235.969 667.221 236 636.083 Z  M 251.742 636.083 C 251.71 607.056 257.535 578.311 268.838 551.55 C 279.762 525.765 295.567 502.309 315.402 482.506 C 335.205 462.671 358.66 446.867 384.446 435.91 C 411.207 424.639 439.951 418.815 468.979 418.846 C 498.007 418.815 526.752 424.639 553.513 435.91 C 579.298 446.867 602.753 462.671 622.557 482.506 C 642.391 502.309 658.196 525.765 669.152 551.55 C 680.424 578.311 686.248 607.056 686.217 636.083 C 686.248 665.111 680.424 693.856 669.152 720.617 C 658.196 746.402 642.391 769.858 622.557 789.661 C 602.753 809.496 579.298 825.3 553.513 836.257 C 526.752 847.528 498.007 853.352 468.979 853.321 C 439.951 853.352 411.207 847.528 384.446 836.257 C 358.66 825.3 335.205 809.496 315.402 789.661 C 295.567 769.858 279.762 746.402 268.806 720.617 C 257.535 693.856 251.71 665.111 251.742 636.083 Z " fill-rule="evenodd" fill="rgb(232,232,232)"/></g><g><circle vector-effect="non-scaling-stroke" cx="528.8964975957566" cy="422.0927962331253" r="66.90279475740212" fill="rgb(0,143,238)"/><path d=" M 460.479 422.152 C 460.479 403.986 467.688 386.575 480.534 373.73 C 493.379 360.885 510.79 353.675 528.956 353.675 C 547.122 353.675 564.532 360.885 577.378 373.73 C 590.223 386.575 597.433 403.986 597.433 422.152 C 597.433 440.318 590.223 457.729 577.378 470.574 C 564.532 483.419 547.122 490.629 528.956 490.629 C 510.79 490.629 493.379 483.419 480.534 470.574 C 467.688 457.729 460.479 440.318 460.479 422.152 Z  M 463.627 422.152 C 463.627 404.836 470.522 388.213 482.769 375.965 C 495.016 363.718 511.64 356.823 528.956 356.823 C 546.272 356.823 562.895 363.718 575.142 375.965 C 587.389 388.213 594.284 404.836 594.284 422.152 C 594.284 439.468 587.389 456.091 575.142 468.338 C 562.895 480.586 546.272 487.481 528.956 487.481 C 511.64 487.481 495.016 480.586 482.769 468.338 C 470.522 456.091 463.627 439.468 463.627 422.152 Z " fill-rule="evenodd" fill="rgb(249,249,249)"/></g><g><circle vector-effect="non-scaling-stroke" cx="478.42436338461584" cy="355.1900014757225" r="29.220658229375488" fill="rgb(51,173,255)"/><path d=" M 446.783 355.186 C 446.783 346.812 450.121 338.783 456.04 332.864 C 461.958 326.945 469.987 323.608 478.361 323.608 C 486.736 323.608 494.764 326.945 500.683 332.864 C 506.602 338.783 509.94 346.812 509.94 355.186 C 509.94 363.561 506.602 371.589 500.683 377.508 C 494.764 383.427 486.736 386.764 478.361 386.764 C 469.987 386.764 461.958 383.427 456.04 377.508 C 450.121 371.589 446.783 363.561 446.783 355.186 Z  M 451.506 355.186 C 451.506 348.071 454.339 341.239 459.377 336.202 C 464.414 331.164 471.246 328.331 478.361 328.331 C 485.477 328.331 492.309 331.164 497.346 336.202 C 502.383 341.239 505.217 348.071 505.217 355.186 C 505.217 362.302 502.383 369.133 497.346 374.171 C 492.309 379.208 485.477 382.042 478.361 382.042 C 471.246 382.042 464.414 379.208 459.377 374.171 C 454.339 369.133 451.506 362.302 451.506 355.186 Z " fill-rule="evenodd" fill="rgb(255,255,255)"/></g><g><circle vector-effect="non-scaling-stroke" cx="364.39433166285" cy="838.6608375697348" r="51.25922591416668" fill="rgb(0,107,238)"/><path d=" M 310.774 838.775 C 310.774 824.576 316.441 810.912 326.484 800.869 C 336.528 790.826 350.191 785.159 364.391 785.159 C 378.621 785.159 392.254 790.826 402.297 800.869 C 412.372 810.912 418.007 824.576 418.007 838.775 C 418.007 853.006 412.372 866.638 402.297 876.682 C 392.254 886.756 378.621 892.392 364.391 892.392 C 350.191 892.392 336.528 886.756 326.484 876.682 C 316.441 866.638 310.774 853.006 310.774 838.775 Z  M 315.496 838.775 C 315.496 825.804 320.66 813.368 329.822 804.206 C 338.983 795.044 351.419 789.881 364.391 789.881 C 377.362 789.881 389.798 795.044 398.96 804.206 C 408.121 813.368 413.285 825.804 413.285 838.775 C 413.285 851.747 408.121 864.183 398.96 873.344 C 389.798 882.506 377.362 887.669 364.391 887.669 C 351.419 887.669 338.983 882.506 329.822 873.344 C 320.66 864.183 315.496 851.747 315.496 838.775 Z " fill-rule="evenodd" fill="rgb(255,255,255)"/></g><g><circle vector-effect="non-scaling-stroke" cx="683.7570326576616" cy="698.3619839960422" r="29.22065822937543" fill="rgb(79,184,255)"/><path d=" M 651.27 698.358 C 651.27 689.795 654.67 681.546 660.746 675.47 C 666.823 669.393 675.071 665.993 683.635 665.993 C 692.23 665.993 700.447 669.393 706.523 675.47 C 712.6 681.546 716 689.795 716 698.358 C 716 706.953 712.6 715.17 706.523 721.247 C 700.447 727.323 692.23 730.723 683.635 730.723 C 675.071 730.723 666.823 727.323 660.746 721.247 C 654.67 715.17 651.27 706.953 651.27 698.358 Z  M 657.567 698.358 C 657.567 691.463 660.306 684.82 665.217 679.94 C 670.097 675.029 676.74 672.29 683.635 672.29 C 690.561 672.29 697.173 675.029 702.084 679.94 C 706.964 684.82 709.703 691.463 709.703 698.358 C 709.703 705.285 706.964 711.896 702.084 716.808 C 697.173 721.688 690.561 724.427 683.635 724.427 C 676.74 724.427 670.097 721.688 665.217 716.808 C 660.306 711.896 657.567 705.285 657.567 698.358 Z " fill-rule="evenodd" fill="rgb(255,255,255)"/></g></g><g><g><path d=" M 676.771 634.324 L 466.618 850.172 L 466.618 526.4 L 557.302 526.4 L 676.771 634.324 Z  M 256.465 634.324 L 466.618 850.172 L 466.618 526.4 L 375.934 526.4 L 256.465 634.324 Z " fill-rule="evenodd" fill="rgb(32,32,208)"/><path d=" M 466.618 850.172 L 615.857 634.324 L 539.715 542.389 L 466.618 542.389 L 466.618 850.172 Z  M 466.618 850.172 L 317.379 634.324 L 393.521 542.389 L 466.618 542.389 L 466.618 850.172 Z " fill-rule="evenodd" fill="rgb(62,62,62)"/></g><g><path d=" M 466.618 850.172 L 649.113 518.406 L 418.225 518.406 L 375.247 442.459 L 302.15 562.375 L 466.618 850.172 Z " fill="rgb(255,255,255)"/><path d=" M 384.384 590.355 L 417.887 538.392 L 494.029 661.373 L 506.212 641.387 L 436.161 538.392 L 497.075 534.394 L 533.623 595.284 L 542.761 578.363 L 518.395 534.394 L 621.949 534.394 L 484.892 778.223 L 384.384 590.355 Z " fill="rgb(0,136,255)"/><path d=" M 477.278 802.657 L 466.161 822.705 L 321.947 563.547 L 333.064 545.859 L 477.278 802.657 Z " fill="rgb(255,0,76)"/><path d=" M 343.267 532.892 L 373.724 480.778 L 402.001 527.196 L 371.111 573.615 L 343.267 532.892 Z " fill="rgb(255,0,76)"/></g></g></g><rect x="186" y="318" width="580" height="580" transform="matrix(1,0,0,1,0,0)" fill="none"/></g></g></svg>